<svg xmlns="http://www.w3.org/2000/svg" width="76" height="31.5" viewBox="0 0 76 31.5"><path fill="#FFF" d="M13.182,30.604C7.154,32.112,1.701,28.976,0.075,24.18c2.097,3.417,8.184,4.157,11.499,2.076 c3.762-2.363,5.003-6.513,2.228-9.88c0,0-4.1-4.934-4.101-4.936c-0.719-0.872-0.464-2.062,0.411-2.782 c0.868-0.716,2.045-0.72,2.767,0.139l4.983,6.027C24.252,22.577,18.41,29.297,13.182,30.604z M7.479,0.381 C2.252,1.687-3.591,8.406,2.798,16.159l4.886,5.933c0.723,0.859,1.899,0.853,2.768,0.138c0.873-0.72,1.13-1.91,0.41-2.784 c-0.001-0.001-4.004-4.837-4.004-4.837c-2.774-3.367-1.534-7.517,2.229-9.88c3.315-2.083,9.402-1.342,11.499,2.076 C18.96,2.008,13.507-1.126,7.479,0.381z M23.751,18.165c0.183,5.062,3.787,6.92,8.053,6.92c3.863,0,8.092-1.58,8.092-6.446 c0-3.955-3.09-5.062-6.216-5.814c-2.905-0.751-6.216-1.147-6.216-3.559c0-2.057,2.17-2.611,4.046-2.611 c2.061,0,4.193,0.831,4.414,3.442h3.126c-0.257-4.983-3.604-6.408-7.797-6.408c-3.31,0-7.098,1.701-7.098,5.814 c0,3.916,3.126,5.023,6.215,5.775c3.127,0.751,6.215,1.186,6.215,3.796c0,2.571-2.647,3.045-4.597,3.045 c-2.574,0-5.002-0.948-5.111-3.953H23.751z M53.284,14.051c-1.213,0.949-3.568,0.988-5.664,1.384 c-2.059,0.396-3.825,1.186-3.825,3.678c0,2.215,1.766,3.005,3.677,3.005c4.12,0,5.812-2.767,5.812-4.625V14.051z M58.359,24.531 c-0.551,0.355-1.25,0.554-2.242,0.554c-1.619,0-2.65-0.95-2.65-3.163c-1.728,2.174-4.046,3.163-6.692,3.163 c-3.458,0-6.289-1.66-6.289-5.734c0-4.628,3.2-5.616,6.435-6.288c3.459-0.712,6.399-0.475,6.399-3.006 c0-2.926-2.242-3.402-4.229-3.402c-2.648,0-4.597,0.871-4.744,3.876H41.22c0.183-5.062,3.825-6.842,8.055-6.842 c3.421,0,7.134,0.831,7.134,5.616v10.52c0,1.583,0,2.293,0.993,2.293c0.257,0,0.552-0.037,0.955-0.196V24.531z M22.313,25.215 c0.541,0,0.973-0.428,0.973-1.004c0-0.571-0.432-0.999-0.973-0.999c-0.552,0-0.98,0.428-0.98,0.999 C21.333,24.788,21.76,25.215,22.313,25.215z M21.091,24.211c0-0.691,0.562-1.199,1.222-1.199c0.654,0,1.216,0.508,1.216,1.199 c0,0.695-0.562,1.201-1.216,1.201C21.653,25.412,21.091,24.906,21.091,24.211z M22.057,24.906h-0.209V23.52h0.527 c0.33,0,0.492,0.12,0.492,0.394c0,0.249-0.156,0.357-0.362,0.38l0.395,0.612h-0.235l-0.368-0.602h-0.241V24.906z M22.308,24.128 c0.18,0,0.336-0.015,0.336-0.227c0-0.172-0.156-0.203-0.3-0.203h-0.287v0.43H22.308z M58.189,18.158 c0.183,5.034,3.769,6.882,8.011,6.882c3.84,0,8.047-1.572,8.047-6.411c0-3.933-3.073-5.034-6.181-5.781 c-2.889-0.747-6.182-1.141-6.182-3.539c0-2.045,2.159-2.597,4.024-2.597c2.047,0,4.169,0.827,4.389,3.423h3.108 c-0.256-4.956-3.583-6.372-7.753-6.372c-3.292,0-7.061,1.692-7.061,5.781c0,3.893,3.111,4.995,6.182,5.743 c3.109,0.747,6.181,1.18,6.181,3.775c0,2.557-2.634,3.028-4.572,3.028c-2.56,0-4.974-0.945-5.082-3.933H58.189z M74.251,25.215 c0.542,0,0.971-0.427,0.971-1.004c0-0.57-0.429-0.998-0.971-0.998c-0.552,0-0.979,0.428-0.979,0.998 C73.272,24.788,73.699,25.215,74.251,25.215z M73.029,24.21c0-0.691,0.561-1.199,1.223-1.199c0.653,0,1.214,0.508,1.214,1.199 c0,0.696-0.561,1.202-1.214,1.202C73.59,25.412,73.029,24.906,73.029,24.21z M73.996,24.906h-0.21V23.52h0.527 c0.328,0,0.49,0.12,0.49,0.394c0,0.249-0.156,0.357-0.359,0.379l0.393,0.613h-0.236l-0.365-0.602h-0.241V24.906z M74.247,24.127 c0.178,0,0.336-0.014,0.336-0.226c0-0.173-0.155-0.203-0.303-0.203h-0.284v0.429H74.247z" class="Design"></path></svg>